<mxfile host="Electron" modified="2024-05-20T12:43:46.419Z" agent="Mozilla/5.0 (Windows NT 10.0; Win64; x64) AppleWebKit/537.36 (KHTML, like Gecko) draw.io/21.2.8 Chrome/112.0.5615.165 Electron/24.2.0 Safari/537.36" etag="kwuQXkEcwreQyB9voOZs" version="21.2.8" type="device">
  <diagram name="Страница 1" id="qYLckMdHjMNmbkoLgYRS">
    <mxGraphModel dx="1418" dy="820" grid="1" gridSize="10" guides="1" tooltips="1" connect="1" arrows="1" fold="1" page="1" pageScale="1" pageWidth="827" pageHeight="1169" math="0" shadow="0">
      <root>
        <mxCell id="0" />
        <mxCell id="1" parent="0" />
        <mxCell id="kxpQ_CDTYhGyxua6Jlex-6" style="edgeStyle=orthogonalEdgeStyle;rounded=0;orthogonalLoop=1;jettySize=auto;html=1;entryX=0.5;entryY=0;entryDx=0;entryDy=0;fillColor=#f8cecc;strokeColor=#b85450;strokeWidth=3;" edge="1" parent="1" source="kxpQ_CDTYhGyxua6Jlex-1" target="kxpQ_CDTYhGyxua6Jlex-2">
          <mxGeometry relative="1" as="geometry" />
        </mxCell>
        <mxCell id="kxpQ_CDTYhGyxua6Jlex-10" style="edgeStyle=orthogonalEdgeStyle;rounded=0;orthogonalLoop=1;jettySize=auto;html=1;entryX=0.5;entryY=0;entryDx=0;entryDy=0;fillColor=#f8cecc;strokeColor=#b85450;strokeWidth=3;" edge="1" parent="1" source="kxpQ_CDTYhGyxua6Jlex-1" target="kxpQ_CDTYhGyxua6Jlex-4">
          <mxGeometry relative="1" as="geometry" />
        </mxCell>
        <mxCell id="kxpQ_CDTYhGyxua6Jlex-11" style="edgeStyle=orthogonalEdgeStyle;rounded=0;orthogonalLoop=1;jettySize=auto;html=1;entryX=0.5;entryY=0;entryDx=0;entryDy=0;fillColor=#f8cecc;strokeColor=#b85450;strokeWidth=3;" edge="1" parent="1" source="kxpQ_CDTYhGyxua6Jlex-1" target="kxpQ_CDTYhGyxua6Jlex-5">
          <mxGeometry relative="1" as="geometry" />
        </mxCell>
        <mxCell id="kxpQ_CDTYhGyxua6Jlex-1" value="&lt;b style=&quot;font-size: 13px;&quot;&gt;Император&lt;/b&gt;&lt;br style=&quot;font-size: 13px;&quot;&gt;Верховная законодательная, исполнительная и судебная власть" style="rounded=0;whiteSpace=wrap;html=1;fontSize=13;fontFamily=Verdana;fillColor=#ffe6cc;strokeColor=#d79b00;strokeWidth=2;" vertex="1" parent="1">
          <mxGeometry x="290" y="120" width="250" height="60" as="geometry" />
        </mxCell>
        <mxCell id="kxpQ_CDTYhGyxua6Jlex-7" style="edgeStyle=orthogonalEdgeStyle;rounded=0;orthogonalLoop=1;jettySize=auto;html=1;entryX=0.5;entryY=0;entryDx=0;entryDy=0;fillColor=#f8cecc;strokeColor=#b85450;strokeWidth=3;" edge="1" parent="1" source="kxpQ_CDTYhGyxua6Jlex-2" target="kxpQ_CDTYhGyxua6Jlex-3">
          <mxGeometry relative="1" as="geometry" />
        </mxCell>
        <mxCell id="kxpQ_CDTYhGyxua6Jlex-8" style="edgeStyle=orthogonalEdgeStyle;rounded=0;orthogonalLoop=1;jettySize=auto;html=1;entryX=0.75;entryY=0;entryDx=0;entryDy=0;curved=1;fillColor=#f8cecc;strokeColor=#b85450;strokeWidth=3;" edge="1" parent="1" source="kxpQ_CDTYhGyxua6Jlex-2" target="kxpQ_CDTYhGyxua6Jlex-4">
          <mxGeometry relative="1" as="geometry" />
        </mxCell>
        <mxCell id="kxpQ_CDTYhGyxua6Jlex-9" style="edgeStyle=orthogonalEdgeStyle;rounded=0;orthogonalLoop=1;jettySize=auto;html=1;entryX=0.25;entryY=0;entryDx=0;entryDy=0;elbow=vertical;curved=1;fillColor=#f8cecc;strokeColor=#b85450;strokeWidth=3;" edge="1" parent="1" source="kxpQ_CDTYhGyxua6Jlex-2" target="kxpQ_CDTYhGyxua6Jlex-5">
          <mxGeometry relative="1" as="geometry" />
        </mxCell>
        <mxCell id="kxpQ_CDTYhGyxua6Jlex-2" value="&lt;b style=&quot;font-size: 13px;&quot;&gt;Государственный совет&lt;/b&gt;&lt;br style=&quot;font-size: 13px;&quot;&gt;Совещательный орган" style="rounded=0;whiteSpace=wrap;html=1;fontSize=13;fontFamily=Verdana;fillColor=#ffe6cc;strokeColor=#d79b00;strokeWidth=2;" vertex="1" parent="1">
          <mxGeometry x="290" y="230" width="250" height="60" as="geometry" />
        </mxCell>
        <mxCell id="kxpQ_CDTYhGyxua6Jlex-3" value="&lt;b style=&quot;font-size: 13px;&quot;&gt;Государственная дума&lt;br style=&quot;font-size: 13px;&quot;&gt;&lt;/b&gt;Законодательная власть" style="rounded=0;whiteSpace=wrap;html=1;fontSize=13;fontFamily=Verdana;fillColor=#ffe6cc;strokeColor=#d79b00;strokeWidth=2;" vertex="1" parent="1">
          <mxGeometry x="290" y="340" width="250" height="60" as="geometry" />
        </mxCell>
        <mxCell id="kxpQ_CDTYhGyxua6Jlex-4" value="&lt;b style=&quot;font-size: 13px;&quot;&gt;Министерства&lt;br style=&quot;font-size: 13px;&quot;&gt;&lt;/b&gt;Исполнительная власть" style="rounded=0;whiteSpace=wrap;html=1;fontSize=13;fontFamily=Verdana;fillColor=#ffe6cc;strokeColor=#d79b00;strokeWidth=2;" vertex="1" parent="1">
          <mxGeometry x="50" y="340" width="180" height="60" as="geometry" />
        </mxCell>
        <mxCell id="kxpQ_CDTYhGyxua6Jlex-5" value="&lt;b style=&quot;font-size: 13px;&quot;&gt;Сенат&lt;br style=&quot;font-size: 13px;&quot;&gt;&lt;/b&gt;Судебная власть" style="rounded=0;whiteSpace=wrap;html=1;fontSize=13;fontFamily=Verdana;fillColor=#ffe6cc;strokeColor=#d79b00;strokeWidth=2;" vertex="1" parent="1">
          <mxGeometry x="580" y="340" width="180" height="60" as="geometry" />
        </mxCell>
      </root>
    </mxGraphModel>
  </diagram>
</mxfile>
